<mxfile host="65bd71144e">
    <diagram id="SNjHMOaQ5DfXKohGBuVK" name="ページ1">
        <mxGraphModel dx="1573" dy="1024" grid="1" gridSize="10" guides="1" tooltips="1" connect="1" arrows="1" fold="1" page="1" pageScale="1" pageWidth="1169" pageHeight="827" math="0" shadow="0">
            <root>
                <mxCell id="0"/>
                <mxCell id="1" parent="0"/>
                <mxCell id="2" value="" style="rounded=0;whiteSpace=wrap;html=1;strokeColor=#BEBEBE;movable=0;resizable=0;rotatable=0;deletable=0;editable=0;locked=1;connectable=0;" parent="1" vertex="1">
                    <mxGeometry y="40" width="1160" height="600" as="geometry"/>
                </mxCell>
                <mxCell id="3" value="&lt;font style=&quot;font-size: 30px;&quot;&gt;Flight Module&lt;/font&gt;" style="text;html=1;align=center;verticalAlign=middle;whiteSpace=wrap;rounded=0;fillColor=#d5e8d4;strokeColor=#82b366;" parent="1" vertex="1">
                    <mxGeometry x="40" y="80" width="230" height="40" as="geometry"/>
                </mxCell>
                <mxCell id="4" value="&lt;font style=&quot;font-size: 20px;&quot;&gt;MKR WAN 1310&lt;/font&gt;" style="rounded=0;whiteSpace=wrap;html=1;" parent="1" vertex="1">
                    <mxGeometry x="500" y="290" width="170" height="60" as="geometry"/>
                </mxCell>
                <mxCell id="5" value="マイコン (Arduino)" style="text;html=1;align=center;verticalAlign=middle;whiteSpace=wrap;rounded=0;" parent="1" vertex="1">
                    <mxGeometry x="545" y="350" width="95" height="30" as="geometry"/>
                </mxCell>
                <mxCell id="6" value="&lt;font style=&quot;font-size: 20px;&quot;&gt;NJM7805DL1&lt;/font&gt;" style="rounded=0;whiteSpace=wrap;html=1;" parent="1" vertex="1">
                    <mxGeometry x="720" y="290" width="170" height="60" as="geometry"/>
                </mxCell>
                <mxCell id="7" value="レギュレーター" style="text;html=1;align=center;verticalAlign=middle;whiteSpace=wrap;rounded=0;" parent="1" vertex="1">
                    <mxGeometry x="720" y="350" width="170" height="30" as="geometry"/>
                </mxCell>
                <mxCell id="8" value="&lt;span style=&quot;font-size: 20px;&quot;&gt;MCP2515&lt;/span&gt;" style="rounded=0;whiteSpace=wrap;html=1;" parent="1" vertex="1">
                    <mxGeometry x="720" y="190" width="170" height="60" as="geometry"/>
                </mxCell>
                <mxCell id="9" value="&lt;span style=&quot;font-size: 20px;&quot;&gt;MCP2562&lt;/span&gt;" style="rounded=0;whiteSpace=wrap;html=1;" parent="1" vertex="1">
                    <mxGeometry x="500" y="190" width="170" height="60" as="geometry"/>
                </mxCell>
                <mxCell id="10" value="" style="endArrow=oval;html=1;entryX=0.5;entryY=1;entryDx=0;entryDy=0;exitX=0.5;exitY=0;exitDx=0;exitDy=0;strokeWidth=3;startArrow=oval;startFill=1;endFill=1;strokeColor=#0000FF;" parent="1" source="4" target="9" edge="1">
                    <mxGeometry width="50" height="50" relative="1" as="geometry">
                        <mxPoint x="570" y="300" as="sourcePoint"/>
                        <mxPoint x="610" y="260" as="targetPoint"/>
                    </mxGeometry>
                </mxCell>
                <mxCell id="11" value="" style="endArrow=oval;html=1;strokeWidth=3;startArrow=oval;startFill=1;endFill=1;" parent="1" source="9" edge="1">
                    <mxGeometry width="50" height="50" relative="1" as="geometry">
                        <mxPoint x="670" y="270" as="sourcePoint"/>
                        <mxPoint x="720" y="220" as="targetPoint"/>
                    </mxGeometry>
                </mxCell>
                <mxCell id="12" value="&lt;font style=&quot;color: rgb(51, 51, 255); font-size: 20px;&quot;&gt;SPI&lt;/font&gt;" style="text;html=1;align=center;verticalAlign=middle;whiteSpace=wrap;rounded=0;" parent="1" vertex="1">
                    <mxGeometry x="600" y="250" width="60" height="40" as="geometry"/>
                </mxCell>
                <mxCell id="13" value="&lt;font style=&quot;font-size: 20px; color: rgb(0, 0, 0);&quot;&gt;CAN TX RX&lt;/font&gt;" style="text;html=1;align=center;verticalAlign=middle;whiteSpace=wrap;rounded=0;" parent="1" vertex="1">
                    <mxGeometry x="660" y="120" width="60" height="70" as="geometry"/>
                </mxCell>
                <mxCell id="14" value="" style="endArrow=oval;html=1;entryX=1;entryY=0.5;entryDx=0;entryDy=0;startArrow=oval;startFill=1;strokeWidth=3;strokeColor=#FF3333;endFill=1;" parent="1" target="6" edge="1">
                    <mxGeometry width="50" height="50" relative="1" as="geometry">
                        <mxPoint x="1120" y="320" as="sourcePoint"/>
                        <mxPoint x="1040" y="400" as="targetPoint"/>
                    </mxGeometry>
                </mxCell>
                <mxCell id="15" value="&lt;font style=&quot;font-size: 20px; color: rgb(255, 51, 51);&quot;&gt;12 V&lt;/font&gt;" style="text;html=1;align=center;verticalAlign=middle;whiteSpace=wrap;rounded=0;" parent="1" vertex="1">
                    <mxGeometry x="970" y="320" width="60" height="30" as="geometry"/>
                </mxCell>
                <mxCell id="16" value="" style="endArrow=oval;html=1;entryX=1;entryY=0.25;entryDx=0;entryDy=0;strokeWidth=3;fillColor=#dae8fc;strokeColor=#6c8ebf;startArrow=oval;startFill=1;endFill=1;" parent="1" target="8" edge="1">
                    <mxGeometry width="50" height="50" relative="1" as="geometry">
                        <mxPoint x="1050" y="205" as="sourcePoint"/>
                        <mxPoint x="790" y="270" as="targetPoint"/>
                    </mxGeometry>
                </mxCell>
                <mxCell id="17" value="" style="endArrow=oval;html=1;entryX=1;entryY=0.75;entryDx=0;entryDy=0;strokeWidth=3;fillColor=#fff2cc;strokeColor=#d6b656;startArrow=oval;startFill=1;endFill=1;" parent="1" target="8" edge="1">
                    <mxGeometry width="50" height="50" relative="1" as="geometry">
                        <mxPoint x="1070" y="235" as="sourcePoint"/>
                        <mxPoint x="900" y="215" as="targetPoint"/>
                    </mxGeometry>
                </mxCell>
                <mxCell id="19" value="&lt;span style=&quot;font-size: 20px;&quot;&gt;GNSS&lt;/span&gt;" style="rounded=0;whiteSpace=wrap;html=1;" parent="1" vertex="1">
                    <mxGeometry x="260" y="290" width="170" height="60" as="geometry"/>
                </mxCell>
                <mxCell id="21" style="edgeStyle=none;html=1;strokeWidth=3;rounded=0;curved=0;startArrow=oval;startFill=1;endArrow=oval;endFill=1;fillColor=#ffe6cc;strokeColor=#FF9933;exitX=1;exitY=0.5;exitDx=0;exitDy=0;" parent="1" source="19" edge="1">
                    <mxGeometry relative="1" as="geometry">
                        <mxPoint x="450" y="320" as="sourcePoint"/>
                        <mxPoint x="500" y="320" as="targetPoint"/>
                    </mxGeometry>
                </mxCell>
                <mxCell id="23" value="&lt;font style=&quot;font-size: 20px; color: rgb(0, 0, 0);&quot;&gt;CAN&lt;/font&gt;" style="text;html=1;align=center;verticalAlign=middle;whiteSpace=wrap;rounded=0;" parent="1" vertex="1">
                    <mxGeometry x="970" y="205" width="60" height="30" as="geometry"/>
                </mxCell>
                <mxCell id="28" value="&lt;font style=&quot;font-size: 20px;&quot;&gt;FeRAM(0)&lt;/font&gt;" style="rounded=0;whiteSpace=wrap;html=1;" parent="1" vertex="1">
                    <mxGeometry x="310" y="190" width="155" height="60" as="geometry"/>
                </mxCell>
                <mxCell id="36" value="GNSSモジュール" style="text;html=1;align=center;verticalAlign=middle;whiteSpace=wrap;rounded=0;" parent="1" vertex="1">
                    <mxGeometry x="260" y="350" width="170" height="30" as="geometry"/>
                </mxCell>
                <mxCell id="41" value="メモリ" style="text;html=1;align=center;verticalAlign=middle;whiteSpace=wrap;rounded=0;" parent="1" vertex="1">
                    <mxGeometry x="310" y="250" width="57.5" height="30" as="geometry"/>
                </mxCell>
                <mxCell id="42" value="" style="endArrow=oval;html=1;strokeWidth=3;fillColor=#dae8fc;strokeColor=#6c8ebf;startArrow=oval;startFill=1;endFill=1;" parent="1" edge="1">
                    <mxGeometry width="50" height="50" relative="1" as="geometry">
                        <mxPoint x="1050" y="110" as="sourcePoint"/>
                        <mxPoint x="1050" y="570" as="targetPoint"/>
                    </mxGeometry>
                </mxCell>
                <mxCell id="43" value="" style="endArrow=oval;html=1;strokeWidth=3;fillColor=#fff2cc;strokeColor=#d6b656;startArrow=oval;startFill=1;endFill=1;" parent="1" edge="1">
                    <mxGeometry width="50" height="50" relative="1" as="geometry">
                        <mxPoint x="1070" y="110" as="sourcePoint"/>
                        <mxPoint x="1070" y="570" as="targetPoint"/>
                    </mxGeometry>
                </mxCell>
                <mxCell id="44" value="" style="endArrow=oval;html=1;entryX=1;entryY=0.5;entryDx=0;entryDy=0;startArrow=oval;startFill=1;strokeWidth=3;strokeColor=#FF3333;endFill=1;" parent="1" edge="1">
                    <mxGeometry width="50" height="50" relative="1" as="geometry">
                        <mxPoint x="1120" y="570.5534314385776" as="sourcePoint"/>
                        <mxPoint x="1120" y="109.45" as="targetPoint"/>
                    </mxGeometry>
                </mxCell>
                <mxCell id="45" value="&lt;font style=&quot;font-size: 20px; color: rgb(0, 0, 0);&quot;&gt;CAN&lt;/font&gt;" style="text;html=1;align=center;verticalAlign=middle;whiteSpace=wrap;rounded=0;" parent="1" vertex="1">
                    <mxGeometry x="1030" y="70" width="60" height="25" as="geometry"/>
                </mxCell>
                <mxCell id="46" value="&lt;font style=&quot;font-size: 20px; color: rgb(255, 51, 51);&quot;&gt;12 V&lt;/font&gt;" style="text;html=1;align=center;verticalAlign=middle;whiteSpace=wrap;rounded=0;" parent="1" vertex="1">
                    <mxGeometry x="1090" y="67.5" width="60" height="30" as="geometry"/>
                </mxCell>
                <mxCell id="47" style="edgeStyle=none;html=1;entryX=0;entryY=0.5;entryDx=0;entryDy=0;strokeWidth=3;startArrow=oval;startFill=1;endArrow=oval;endFill=1;strokeColor=#FF3333;" parent="1" edge="1">
                    <mxGeometry relative="1" as="geometry">
                        <mxPoint x="670" y="320" as="sourcePoint"/>
                        <mxPoint x="720" y="320" as="targetPoint"/>
                    </mxGeometry>
                </mxCell>
                <mxCell id="49" value="&lt;font style=&quot;font-size: 20px;&quot;&gt;Nch MOSFET&lt;/font&gt;" style="rounded=0;whiteSpace=wrap;html=1;" parent="1" vertex="1">
                    <mxGeometry x="700" y="450" width="150" height="60" as="geometry"/>
                </mxCell>
                <mxCell id="51" value="&lt;span style=&quot;color: rgb(63, 63, 63); font-size: 20px;&quot;&gt;Nch MOSFET&lt;/span&gt;" style="rounded=0;whiteSpace=wrap;html=1;" parent="1" vertex="1">
                    <mxGeometry x="700" y="550" width="150" height="60" as="geometry"/>
                </mxCell>
                <mxCell id="50" value="" style="endArrow=none;html=1;entryX=0.916;entryY=1.007;entryDx=0;entryDy=0;exitX=0;exitY=0.5;exitDx=0;exitDy=0;entryPerimeter=0;edgeStyle=orthogonalEdgeStyle;strokeColor=default;strokeWidth=3;rounded=0;curved=0;" parent="1" source="49" target="4" edge="1">
                    <mxGeometry width="50" height="50" relative="1" as="geometry">
                        <mxPoint x="770" y="440" as="sourcePoint"/>
                        <mxPoint x="820" y="390" as="targetPoint"/>
                    </mxGeometry>
                </mxCell>
                <mxCell id="52" value="" style="endArrow=none;html=1;entryX=0.75;entryY=1;entryDx=0;entryDy=0;exitX=0;exitY=0.5;exitDx=0;exitDy=0;edgeStyle=orthogonalEdgeStyle;strokeColor=default;strokeWidth=3;rounded=0;curved=0;" parent="1" source="51" target="4" edge="1">
                    <mxGeometry width="50" height="50" relative="1" as="geometry">
                        <mxPoint x="770" y="460" as="sourcePoint"/>
                        <mxPoint x="666" y="360" as="targetPoint"/>
                    </mxGeometry>
                </mxCell>
                <mxCell id="54" value="" style="endArrow=none;html=1;entryX=1;entryY=0.5;entryDx=0;entryDy=0;startArrow=oval;startFill=1;strokeWidth=3;" parent="1" target="49" edge="1">
                    <mxGeometry width="50" height="50" relative="1" as="geometry">
                        <mxPoint x="890" y="480" as="sourcePoint"/>
                        <mxPoint x="820" y="410" as="targetPoint"/>
                    </mxGeometry>
                </mxCell>
                <mxCell id="55" value="" style="endArrow=none;html=1;entryX=1;entryY=0.5;entryDx=0;entryDy=0;startArrow=oval;startFill=1;strokeWidth=3;" parent="1" target="51" edge="1">
                    <mxGeometry width="50" height="50" relative="1" as="geometry">
                        <mxPoint x="890" y="580" as="sourcePoint"/>
                        <mxPoint x="860" y="490" as="targetPoint"/>
                    </mxGeometry>
                </mxCell>
                <mxCell id="56" value="SN3" style="text;html=1;align=center;verticalAlign=middle;whiteSpace=wrap;rounded=0;" parent="1" vertex="1">
                    <mxGeometry x="890" y="465" width="50" height="30" as="geometry"/>
                </mxCell>
                <mxCell id="57" value="SN4" style="text;html=1;align=center;verticalAlign=middle;whiteSpace=wrap;rounded=0;" parent="1" vertex="1">
                    <mxGeometry x="890" y="565" width="50" height="30" as="geometry"/>
                </mxCell>
                <mxCell id="58" value="" style="endArrow=oval;html=1;entryX=0.5;entryY=1;entryDx=0;entryDy=0;exitX=0.5;exitY=0;exitDx=0;exitDy=0;strokeWidth=3;startArrow=oval;startFill=1;endFill=1;strokeColor=#0000FF;edgeStyle=orthogonalEdgeStyle;rounded=0;curved=0;" edge="1" parent="1" source="4" target="28">
                    <mxGeometry width="50" height="50" relative="1" as="geometry">
                        <mxPoint x="595" y="300" as="sourcePoint"/>
                        <mxPoint x="595" y="260" as="targetPoint"/>
                    </mxGeometry>
                </mxCell>
                <mxCell id="60" value="" style="verticalLabelPosition=bottom;shadow=0;dashed=0;align=center;html=1;verticalAlign=top;shape=mxgraph.electrical.logic_gates.schmitt_trigger;rotation=-180;strokeWidth=3;" vertex="1" parent="1">
                    <mxGeometry x="370" y="435" width="100" height="60" as="geometry"/>
                </mxCell>
                <mxCell id="61" value="" style="endArrow=none;html=1;entryX=0.25;entryY=1;entryDx=0;entryDy=0;exitX=0;exitY=0.5;exitDx=0;exitDy=0;exitPerimeter=0;edgeStyle=orthogonalEdgeStyle;rounded=0;curved=0;strokeWidth=3;" edge="1" parent="1" source="60" target="4">
                    <mxGeometry width="50" height="50" relative="1" as="geometry">
                        <mxPoint x="500" y="470" as="sourcePoint"/>
                        <mxPoint x="550" y="420" as="targetPoint"/>
                    </mxGeometry>
                </mxCell>
                <mxCell id="63" value="" style="endArrow=none;html=1;entryX=1;entryY=0.5;entryDx=0;entryDy=0;entryPerimeter=0;strokeWidth=3;startArrow=oval;startFill=1;" edge="1" parent="1" target="60">
                    <mxGeometry width="50" height="50" relative="1" as="geometry">
                        <mxPoint x="330" y="465" as="sourcePoint"/>
                        <mxPoint x="480" y="440" as="targetPoint"/>
                    </mxGeometry>
                </mxCell>
                <mxCell id="64" value="Flight Pin" style="text;html=1;align=center;verticalAlign=middle;whiteSpace=wrap;rounded=0;" vertex="1" parent="1">
                    <mxGeometry x="297.5" y="465" width="70" height="30" as="geometry"/>
                </mxCell>
                <mxCell id="65" value="シュミットトリガー" style="text;html=1;align=center;verticalAlign=middle;whiteSpace=wrap;rounded=0;" vertex="1" parent="1">
                    <mxGeometry x="357.5" y="500" width="125" height="30" as="geometry"/>
                </mxCell>
            </root>
        </mxGraphModel>
    </diagram>
</mxfile>